<svg width="52" height="50" viewBox="0 0 52 50" fill="none" xmlns="http://www.w3.org/2000/svg">
<path d="M49.9949 20.9626L41.5084 29.2043L36.6651 24.4922L40.3255 20.9626C40.6169 20.6321 40.5972 20.1398 40.2803 19.8321C39.9639 19.5248 39.457 19.5057 39.1167 19.7886L35.4479 23.3101L33.0303 20.9541L41.5084 12.7123C41.8408 12.3876 41.8408 11.8632 41.5084 11.5384C41.174 11.2156 40.634 11.2156 40.2996 11.5384L31.2045 20.3715C31.0421 20.5276 30.9508 20.7406 30.9508 20.9626C30.9508 21.1845 31.0421 21.3971 31.2045 21.5536L32.4217 22.7272L31.2045 23.9097C29.7654 22.5109 27.5118 22.2882 25.8124 23.3768L25.144 22.7272C24.3408 21.9492 23.2525 21.5122 22.1177 21.5118C21.5815 21.5118 21.0495 21.6077 20.5489 21.7951L19.0831 20.3715L19.6917 19.7886C19.8541 19.6321 19.9453 19.4195 19.9453 19.1976C19.9453 18.9756 19.8541 18.7626 19.6917 18.6065L11.1797 10.3648C10.8435 10.0404 10.3002 10.0425 9.96663 10.3689C9.63262 10.6953 9.63471 11.2225 9.97082 11.5469L17.8487 19.1976L17.2401 19.7801L12.954 23.9011L9.92813 20.9541C9.76698 20.7963 9.54806 20.7077 9.31952 20.7077C9.09099 20.7077 8.87166 20.7963 8.71092 20.9541C8.37816 21.2788 8.37816 21.8032 8.71092 22.128L11.7451 25.0751L10.5279 26.2487L9.38775 27.4726L1.50984 19.7886C1.34911 19.6309 1.12978 19.5423 0.90124 19.5423C0.672701 19.5423 0.453789 19.6309 0.292639 19.7886C-0.0397055 20.1134 -0.0397055 20.6378 0.292639 20.9626L8.77915 29.2043C8.94114 29.36 9.16005 29.447 9.38775 29.4458C9.61587 29.447 9.83479 29.36 9.99677 29.2043L11.1797 28.0303L12.3881 29.2043C10.715 30.8299 10.715 33.4644 12.3881 35.09L14 36.6302C14.1607 36.7879 14.38 36.8765 14.6086 36.8765C14.8371 36.8765 15.056 36.7879 15.2172 36.6302C15.5495 36.3054 15.5495 35.781 15.2172 35.4562L13.6312 33.9164C13.1469 33.4477 12.8749 32.8111 12.8749 32.1473C12.8749 31.4831 13.1469 30.8465 13.6312 30.3783L14.2314 29.7953L20.3003 23.9011C21.3191 22.9625 22.9164 22.9625 23.9352 23.9011L29.387 29.1958C29.6784 29.5262 29.6587 30.0185 29.3423 30.3262C29.0254 30.6335 28.5185 30.6526 28.1786 30.3697L24.2265 26.532C23.8883 26.2056 23.3412 26.2072 23.0051 26.5361C22.669 26.8649 22.6707 27.3958 23.0093 27.7222L26.961 31.5603C27.696 32.2794 28.8052 32.4965 29.7692 32.1095C30.7336 31.7225 31.3614 30.8083 31.3589 29.7953C31.3581 29.1332 31.0869 28.4982 30.6042 28.0303L27.0728 24.6003C28.0572 24.167 29.2142 24.358 29.9956 25.0832L37.2737 32.1514C37.753 32.6205 38.0213 33.2554 38.0196 33.9164C38.0213 34.5774 37.753 35.2119 37.2737 35.681L34.8477 38.0371L32.3618 40.4431L30.6042 42.1581L25.7526 46.8698C25.4182 47.1926 24.8782 47.1926 24.5438 46.8698C24.2114 46.5454 24.2114 46.021 24.5438 45.6963L30.0388 40.3846C30.2832 40.1813 30.3899 39.8618 30.3146 39.5578C30.2392 39.2537 29.9948 39.0163 29.6817 38.9431C29.3682 38.87 29.0396 38.9732 28.8299 39.211L23.3693 44.5056C23.0294 44.7885 22.5225 44.7694 22.2056 44.4621C21.8892 44.1544 21.8695 43.6621 22.1608 43.3317L27.6127 38.0371C27.7751 37.881 27.8664 37.668 27.8664 37.446C27.8664 37.2241 27.7751 37.0115 27.6127 36.855C27.2783 36.5322 26.7383 36.5322 26.4039 36.855L20.9432 42.1581C20.6092 42.4809 20.0692 42.4809 19.7348 42.1581C19.5724 42.0016 19.4812 41.789 19.4812 41.5671C19.4812 41.3451 19.5724 41.1321 19.7348 40.976L25.1867 35.681C25.3491 35.5249 25.4403 35.3119 25.4403 35.09C25.4403 34.868 25.3491 34.6554 25.1867 34.4989C24.8522 34.1761 24.3123 34.1761 23.9779 34.4989L18.5176 39.8021C18.1815 40.126 17.6382 40.1244 17.3046 39.798C16.9706 39.4716 16.9727 38.9439 17.3088 38.62L23.9008 32.2262C24.2369 31.8998 24.2369 31.3705 23.9008 31.0441C23.5647 30.7177 23.0197 30.7177 22.6836 31.0441L16.0573 37.4627C15.0544 38.4379 15.0544 40.0175 16.0573 40.9927C16.5001 41.4317 17.0966 41.6935 17.7286 41.7252C17.8052 42.9926 18.8491 44.0028 20.1546 44.0727C20.227 45.3438 21.2722 46.3584 22.5807 46.4288C22.6054 47.0548 22.8716 47.6495 23.3266 48.0938C24.0992 48.8425 25.2746 49.0364 26.2582 48.5767L26.961 49.2677C27.683 49.9693 28.7646 50.1897 29.7165 49.8287C30.6679 49.4677 31.3091 48.5942 31.3501 47.6027C31.996 47.5836 32.61 47.3243 33.0646 46.8783C33.51 46.4442 33.7753 45.8666 33.8105 45.2548C35.1194 45.1849 36.1641 44.1699 36.2365 42.8987C37.2574 42.8593 38.1569 42.2362 38.5286 41.3122C38.9007 40.3878 38.6739 39.3378 37.951 38.6366L37.3424 38.0537L38.5596 36.8716C39.3607 36.0916 39.8107 35.0347 39.8111 33.9327C39.791 33.1087 39.5194 32.3091 39.0309 31.6351L40.3255 30.3783L40.9341 30.9693C41.2686 31.2921 41.8085 31.2921 42.143 30.9693L51.2121 22.1361C51.5445 21.8118 51.5445 21.287 51.2121 20.9626C51.0514 20.8049 50.8321 20.7163 50.6035 20.7163C50.375 20.7163 50.1561 20.8049 49.9949 20.9626ZM12.414 26.8482L17.8747 21.5536L19.0831 22.7272L13.6312 28.0303L12.414 26.8482ZM29.387 48.0438C29.0526 48.3665 28.5126 48.3665 28.1786 48.0438L27.57 47.4527L28.7872 46.2788L29.387 46.8617C29.5494 47.0178 29.6407 47.2308 29.6407 47.4527C29.6407 47.6747 29.5494 47.8877 29.387 48.0438ZM31.8131 45.6877C31.4786 46.0105 30.9387 46.0105 30.6042 45.6877L30.0388 45.0967L30.6474 44.5056L31.2472 43.9227L31.8562 44.5056C32.0182 44.6621 32.1094 44.8747 32.1094 45.0967C32.1094 45.3186 32.0182 45.5316 31.8562 45.6877H31.8131ZM34.2391 43.3317C33.9047 43.6544 33.3647 43.6544 33.0303 43.3317L32.4217 42.7406L33.6305 41.5671L34.2391 42.1581C34.5714 42.4829 34.5714 43.0073 34.2391 43.3317ZM36.6651 40.976C36.504 41.1333 36.2851 41.2219 36.0565 41.2219C35.828 41.2219 35.6087 41.1333 35.4479 40.976L34.8477 40.3846L36.0394 39.211L36.648 39.8021C36.9849 40.122 36.9929 40.6468 36.6651 40.976ZM37.8736 30.3783L32.4217 25.0832L33.6305 23.9097L39.0912 29.2043L37.8736 30.3783Z" fill="#FFBB01"/>
<path d="M16.3233 13.3201H35.1824C35.6558 13.3201 36.0396 12.9473 36.0396 12.4876V0.832504C36.0396 0.372757 35.6558 0 35.1824 0H16.3233C15.8499 0 15.466 0.372757 15.466 0.832504V12.4876C15.466 12.9473 15.8499 13.3201 16.3233 13.3201ZM17.1805 9.99005C18.1273 9.99005 18.895 10.7356 18.895 11.6551H17.1805V9.99005ZM34.3252 11.6551H32.6107C32.6107 10.7356 33.3783 9.99005 34.3252 9.99005V11.6551ZM34.3252 3.33002C33.3783 3.33002 32.6107 2.5845 32.6107 1.66501H34.3252V3.33002ZM34.3252 4.99502V8.32504C32.4311 8.32504 30.8962 9.81607 30.8962 11.6551H20.6094C20.6094 9.81607 19.0741 8.32504 17.1805 8.32504V4.99502C19.0741 4.99502 20.6094 3.504 20.6094 1.66501H30.8962C30.8962 3.504 32.4311 4.99502 34.3252 4.99502ZM17.1805 1.66501H18.895C18.895 2.5845 18.1273 3.33002 17.1805 3.33002V1.66501Z" fill="#FFBB01"/>
<path d="M25.7526 9.99005C27.6462 9.99005 29.1815 8.49902 29.1815 6.66003C29.1815 4.82104 27.6462 3.33002 25.7526 3.33002C23.8586 3.33002 22.3237 4.82104 22.3237 6.66003C22.3237 8.49902 23.8586 9.99005 25.7526 9.99005ZM25.7526 4.99503C26.6994 4.99503 27.467 5.74054 27.467 6.66003C27.467 7.57953 26.6994 8.32504 25.7526 8.32504C24.8058 8.32504 24.0381 7.57953 24.0381 6.66003C24.0381 5.74054 24.8058 4.99503 25.7526 4.99503Z" fill="#FFBB01"/>
<path d="M32.6105 6.66002C32.6105 7.11977 32.2266 7.49252 31.7532 7.49252C31.2798 7.49252 30.896 7.11977 30.896 6.66002C30.896 6.20027 31.2798 5.82751 31.7532 5.82751C32.2266 5.82751 32.6105 6.20027 32.6105 6.66002Z" fill="#FFBB01"/>
<path d="M20.6092 6.66002C20.6092 7.11977 20.2254 7.49252 19.752 7.49252C19.2786 7.49252 18.8948 7.11977 18.8948 6.66002C18.8948 6.20027 19.2786 5.82751 19.752 5.82751C20.2254 5.82751 20.6092 6.20027 20.6092 6.66002Z" fill="#FFBB01"/>
<path d="M51.324 5.36978L47.8951 0.374755C47.7356 0.144272 47.469 0.00646973 47.1835 0.00646973C46.898 0.00646973 46.631 0.144272 46.4719 0.374755L43.043 5.36978C42.9492 5.50514 42.8986 5.66449 42.8973 5.82749V9.15751C42.8973 9.61726 43.2812 9.99001 43.7546 9.99001C44.228 9.99001 44.6118 9.61726 44.6118 9.15751V6.07708L47.1835 2.33081L49.7552 6.07708V14.985C49.7552 15.4448 50.139 15.8175 50.6124 15.8175C51.0858 15.8175 51.4697 15.4448 51.4697 14.985V5.82749C51.4684 5.66449 51.4178 5.50514 51.324 5.36978Z" fill="#FFBB01"/>
<path d="M48.0408 11.655V6.66002C48.0408 6.20027 47.657 5.82751 47.1836 5.82751C46.7102 5.82751 46.3263 6.20027 46.3263 6.66002V11.655C46.3263 12.1148 46.7102 12.4875 47.1836 12.4875C47.657 12.4875 48.0408 12.1148 48.0408 11.655Z" fill="#FFBB01"/>
<path d="M0.892949 7.49256H1.75018V17.4826C1.75018 17.9424 2.13401 18.3151 2.60741 18.3151C3.08082 18.3151 3.46464 17.9424 3.46464 17.4826V6.66006C3.46464 6.20031 3.08082 5.82755 2.60741 5.82755H2.55593L5.17911 2.26462L7.80229 5.82755H7.7508C7.2774 5.82755 6.89357 6.20031 6.89357 6.66006V8.32507C6.89357 8.78481 7.2774 9.15757 7.7508 9.15757C8.22421 9.15757 8.60804 8.78481 8.60804 8.32507V7.49256H9.46527C9.78547 7.49094 10.0781 7.31655 10.2241 7.03972C10.3702 6.76331 10.3451 6.43039 10.1597 6.17714L5.87352 0.349612C5.71195 0.133356 5.45411 0.00531006 5.17911 0.00531006C4.90411 0.00531006 4.64585 0.133356 4.4847 0.349612L0.198541 6.17714C0.0126958 6.43039 -0.0119999 6.76331 0.134081 7.03972C0.280162 7.31655 0.572743 7.49094 0.892949 7.49256Z" fill="#FFBB01"/>
<path d="M5.17906 11.6551V14.1526C5.17906 14.6123 5.56289 14.9851 6.03629 14.9851C6.5097 14.9851 6.89353 14.6123 6.89353 14.1526V11.6551C6.89353 11.1953 6.5097 10.8226 6.03629 10.8226C5.56289 10.8226 5.17906 11.1953 5.17906 11.6551Z" fill="#FFBB01"/>
</svg>
