<svg width="52" height="50" viewBox="0 0 52 50" fill="none" xmlns="http://www.w3.org/2000/svg">
<path d="M43.8961 36.7029L40.8589 39.6525L39.0399 37.8778C38.7035 37.5511 38.1581 37.5511 37.8217 37.8778C37.4853 38.2045 37.4853 38.7342 37.8217 39.0609L40.2498 41.419C40.4107 41.5768 40.6302 41.6655 40.8589 41.6655C41.0876 41.6655 41.3067 41.5768 41.468 41.419L45.1487 37.8778C45.3934 37.6744 45.5002 37.3546 45.4248 37.0503C45.3494 36.7456 45.1047 36.508 44.7914 36.4347C44.478 36.3615 44.1487 36.4653 43.9388 36.7029H43.8961Z" fill="#FFBB01"/>
<path d="M45.1487 30.9123V28.3292C45.1487 27.8691 44.7645 27.496 44.2907 27.496H41.7169V26.6628C41.7169 25.2824 42.8693 24.1632 44.2907 24.1632C44.7645 24.1632 45.1487 23.7901 45.1487 23.33C45.1487 22.8698 44.7645 22.4968 44.2907 22.4968C41.9217 22.4968 40.0009 24.3621 40.0009 26.6628V27.496H37.4271C36.9532 27.496 36.5691 27.8691 36.5691 28.3292V30.9123C32.1691 32.8708 29.7682 37.5414 30.8001 42.1334C31.8323 46.7258 36.0186 50.0001 40.8589 50.0001C45.6988 50.0001 49.8855 46.7258 50.9177 42.1334C51.9496 37.5414 49.5487 32.8708 45.1487 30.9123ZM41.7169 48.3263V47.4931C41.7169 47.033 41.3327 46.6599 40.8589 46.6599C40.3851 46.6599 40.0009 47.033 40.0009 47.4931V48.3263C35.9097 47.9455 32.6714 44.8006 32.2793 40.8274H33.1372C33.6111 40.8274 33.9952 40.4543 33.9952 39.9942C33.9952 39.5341 33.6111 39.161 33.1372 39.161H32.2793C32.6027 36.0491 34.6931 33.3753 37.6931 32.237C38.0232 32.1133 38.241 31.8057 38.2423 31.4619V29.1625H43.39V31.4619C43.3909 31.8057 43.6087 32.1133 43.9388 32.237C46.9723 33.3505 49.1 36.0291 49.4385 39.161H48.5805C48.1067 39.161 47.7226 39.5341 47.7226 39.9942C47.7226 40.4543 48.1067 40.8274 48.5805 40.8274H49.4385C49.0464 44.8006 45.8081 47.9455 41.7169 48.3263Z" fill="#FFBB01"/>
<path d="M28.1695 43.327C27.9894 43.327 4.82446 43.327 4.82446 43.327C3.40304 43.327 2.25058 42.2078 2.25058 40.8274V14.1646H46.8646V29.5457C46.8646 30.0058 47.2487 30.3789 47.7225 30.3789C48.1963 30.3789 48.5805 30.0058 48.5805 29.5457V8.33212C48.5805 6.03143 46.6597 4.16606 44.2907 4.16606H42.5747V3.33285C42.5747 2.87271 42.1906 2.49964 41.7168 2.49964C41.243 2.49964 40.8588 2.87271 40.8588 3.33285V6.6657C40.8588 7.58598 40.0905 8.33212 39.1429 8.33212C38.1953 8.33212 37.427 7.58598 37.427 6.6657V3.33285C37.427 2.41257 38.1953 1.66642 39.1429 1.66642C39.6167 1.66642 40.0009 1.29335 40.0009 0.833212C40.0009 0.373074 39.6167 0 39.1429 0C37.2477 0 35.7111 1.4923 35.7111 3.33285V4.16606H27.9894V3.33285C27.9894 2.87271 27.6053 2.49964 27.1314 2.49964C26.6576 2.49964 26.2735 2.87271 26.2735 3.33285V6.6657C26.2735 7.58598 25.5052 8.33212 24.5576 8.33212C23.61 8.33212 22.8416 7.58598 22.8416 6.6657V3.33285C22.8416 2.41257 23.61 1.66642 24.5576 1.66642C25.0314 1.66642 25.4155 1.29335 25.4155 0.833212C25.4155 0.373074 25.0314 0 24.5576 0C22.6623 0 21.1257 1.4923 21.1257 3.33285V4.16606H13.4041V3.33285C13.4041 2.87271 13.0199 2.49964 12.5461 2.49964C12.0723 2.49964 11.6881 2.87271 11.6881 3.33285V6.6657C11.6881 7.58598 10.9198 8.33212 9.97223 8.33212C9.02461 8.33212 8.2563 7.58598 8.2563 6.6657V3.33285C8.2563 2.41257 9.02461 1.66642 9.97223 1.66642C10.446 1.66642 10.8302 1.29335 10.8302 0.833212C10.8302 0.373074 10.446 0 9.97223 0C8.077 0 6.54038 1.4923 6.54038 3.33285V4.16606H4.82446C2.45543 4.16606 0.534653 6.03143 0.534653 8.33212V40.8274C0.534653 43.1281 2.45543 44.9935 4.82446 44.9935H24.5576C29.0619 44.9935 29.0619 44.9935 29.0619 44.1603C29.0631 43.9389 28.9735 43.7257 28.813 43.5687C28.6429 43.4043 28.4096 43.3165 28.1695 43.327ZM4.82446 5.83249H6.54038V6.6657C6.54038 8.50625 8.077 9.99855 9.97223 9.99855C11.8674 9.99855 13.4041 8.50625 13.4041 6.6657V5.83249H21.1257V6.6657C21.1257 8.50625 22.6623 9.99855 24.5576 9.99855C26.4528 9.99855 27.9894 8.50625 27.9894 6.6657V5.83249H35.7111V6.6657C35.7111 8.50625 37.2477 9.99855 39.1429 9.99855C41.0381 9.99855 42.5747 8.50625 42.5747 6.6657V5.83249H44.2907C45.7121 5.83249 46.8646 6.95171 46.8646 8.33212V12.4982H2.25058V8.33212C2.25058 6.95171 3.40304 5.83249 4.82446 5.83249Z" fill="#FFBB01"/>
<path d="M15.978 17.4975C15.978 17.0373 15.5939 16.6642 15.1201 16.6642H8.25638C7.78258 16.6642 7.39842 17.0373 7.39842 17.4975V24.1632C7.39842 24.6233 7.78258 24.9964 8.25638 24.9964H15.1201C15.5939 24.9964 15.978 24.6233 15.978 24.1632V17.4975ZM14.2621 23.3299H9.11434V18.3307H14.2621V23.3299Z" fill="#FFBB01"/>
<path d="M15.1201 29.9956C15.5939 29.9956 15.978 29.6226 15.978 29.1624C15.978 28.7023 15.5939 28.3292 15.1201 28.3292H8.25638C7.78258 28.3292 7.39842 28.7023 7.39842 29.1624V35.8281C7.39842 36.2883 7.78258 36.6613 8.25638 36.6613H15.1201C15.5939 36.6613 15.978 36.2883 15.978 35.8281V32.4953C15.978 32.0351 15.5939 31.6621 15.1201 31.6621C14.6463 31.6621 14.2621 32.0351 14.2621 32.4953V34.9949H9.11434V29.9956H15.1201Z" fill="#FFBB01"/>
<path d="M20.2679 28.3292C19.7941 28.3292 19.4099 28.7023 19.4099 29.1624V35.8281C19.4099 36.2883 19.7941 36.6613 20.2679 36.6613H27.1316C27.6054 36.6613 27.9895 36.2883 27.9895 35.8281V29.1624C27.9895 28.7023 27.6054 28.3292 27.1316 28.3292H20.2679ZM26.2736 34.9949H21.1259V29.9956H26.2736V34.9949Z" fill="#FFBB01"/>
<path d="M39.143 23.3299C39.6168 23.3299 40.0009 22.9569 40.0009 22.4967V17.4975C40.0009 17.0373 39.6168 16.6642 39.143 16.6642H32.2793C31.8055 16.6642 31.4213 17.0373 31.4213 17.4975V24.1632C31.4213 24.6233 31.8055 24.9964 32.2793 24.9964C32.7531 24.9964 33.1373 24.6233 33.1373 24.1632V18.3307H38.285V22.4967C38.285 22.9569 38.6692 23.3299 39.143 23.3299Z" fill="#FFBB01"/>
<path d="M27.7407 16.9059C27.5794 16.7481 27.3603 16.6594 27.1316 16.6594C26.9029 16.6594 26.6833 16.7481 26.5225 16.9059L23.6997 19.6553L20.877 16.9059C20.5406 16.5792 19.9952 16.5792 19.6588 16.9059C19.3224 17.2326 19.3224 17.7623 19.6588 18.089L22.4899 20.8303L19.6588 23.5716C19.4962 23.7278 19.4049 23.941 19.4049 24.1632C19.4049 24.3853 19.4962 24.5985 19.6588 24.7547C19.8197 24.9126 20.0392 25.0012 20.2679 25.0012C20.4966 25.0012 20.7157 24.9126 20.877 24.7547L23.6997 22.0053L26.5225 24.7547C26.6833 24.9126 26.9029 25.0012 27.1316 25.0012C27.3603 25.0012 27.5794 24.9126 27.7407 24.7547C27.9033 24.5985 27.9946 24.3853 27.9946 24.1632C27.9946 23.941 27.9033 23.7278 27.7407 23.5716L24.9096 20.8303L27.7407 18.089C27.9033 17.9328 27.9946 17.7196 27.9946 17.4975C27.9946 17.2753 27.9033 17.0621 27.7407 16.9059Z" fill="#FFBB01"/>
</svg>
