<?xml version="1.0" encoding="utf-8"?>
<!-- Generator: Adobe Illustrator 24.1.1, SVG Export Plug-In . SVG Version: 6.00 Build 0)  -->
<svg version="1.1" id="Layer_1" xmlns="http://www.w3.org/2000/svg" xmlns:xlink="http://www.w3.org/1999/xlink" x="0px" y="0px"
	 viewBox="0 0 120 28" style="enable-background:new 0 0 120 28;" xml:space="preserve">
<style type="text/css">
	.st0{fill-rule:evenodd;clip-rule:evenodd;fill:#FFFFFF;}
</style>
<g>
	<polygon class="st0" points="7.4,12.8 3.3,12.8 3.3,7.9 0,7.9 0,20.2 3.3,20.2 3.3,15.5 7.4,15.5 7.4,20.2 10.7,20.2 10.7,7.9 
		7.4,7.9 	"/>
	<path class="st0" d="M22.7,12c0-1.4-0.4-2.5-1.3-3.2s-2.1-1.1-3.6-1.1c-1,0-1.9,0.2-2.7,0.5c-0.8,0.3-1.4,0.8-1.9,1.4
		c-0.4,0.6-0.7,1.3-0.7,2h3.3c0-0.5,0.2-0.8,0.5-1.1c0.3-0.3,0.8-0.4,1.3-0.4c0.6,0,1.1,0.2,1.4,0.5c0.3,0.3,0.4,0.8,0.4,1.4v0.7
		h-1.5c-1.8,0-3.2,0.4-4.2,1.1c-1,0.7-1.5,1.7-1.5,3c0,1.1,0.4,1.9,1.2,2.6c0.8,0.7,1.8,1,3,1c1.3,0,2.3-0.4,3.1-1.3
		c0.1,0.4,0.2,0.8,0.3,1.1h3.3V20c-0.3-0.6-0.5-1.5-0.5-2.7V12z M19.4,16.7c-0.2,0.4-0.5,0.7-0.9,0.9c-0.4,0.2-0.9,0.3-1.3,0.3
		c-0.5,0-0.9-0.1-1.2-0.4s-0.4-0.6-0.4-1l0-0.2c0.1-1.1,1-1.7,2.6-1.7h1.2V16.7z"/>
	<path class="st0" d="M56.4,9.2c-1.1-1-2.4-1.5-4.1-1.5c-1.2,0-2.2,0.3-3.1,0.8c-0.9,0.5-1.6,1.3-2,2.2c-0.5,1-0.7,2-0.7,3.3v0.1
		c0,2,0.5,3.5,1.6,4.7c1.1,1.1,2.5,1.7,4.3,1.7c1.8,0,3.2-0.6,4.3-1.7c1.1-1.1,1.6-2.7,1.6-4.6l0-0.8C58,11.6,57.4,10.2,56.4,9.2z
		 M54.2,16.9c-0.4,0.6-1.1,0.9-1.9,0.9c-0.8,0-1.5-0.3-1.9-0.9c-0.4-0.6-0.7-1.5-0.7-2.7c0-1.3,0.2-2.3,0.7-2.9
		c0.4-0.6,1.1-0.9,1.9-0.9c0.8,0,1.4,0.3,1.9,0.9c0.4,0.6,0.7,1.5,0.7,2.7C54.9,15.3,54.6,16.3,54.2,16.9z"/>
	<path class="st0" d="M60.6,13.1c-0.1,1.6-0.2,2.7-0.5,3.3c-0.3,0.7-0.7,1-1.3,1l-0.4,0l0,2.7h1.1c1.3,0,2.3-0.5,3-1.4
		c0.7-0.9,1.1-2.4,1.2-4.4l0.2-3.8h2.9v9.7h3.3V7.9h-9.3L60.6,13.1z"/>
	<path class="st0" d="M77.4,7.6c-1.1,0-2.1,0.3-3,0.8c-0.9,0.5-1.6,1.3-2,2.3c-0.5,1-0.7,2.1-0.7,3.3v0.3c0,1.8,0.6,3.3,1.7,4.4
		c1.1,1.1,2.6,1.7,4.4,1.7c1,0,2-0.2,2.8-0.6c0.8-0.4,1.5-0.9,2-1.6L81,16.4c-0.7,0.9-1.7,1.4-3,1.4c-0.8,0-1.5-0.2-2-0.7
		s-0.9-1.1-1-1.9h7.9v-1.3c0-2-0.5-3.5-1.5-4.5S79.1,7.6,77.4,7.6z M79.6,12.9h-4.6c0.1-0.8,0.4-1.5,0.8-1.9
		c0.4-0.4,0.9-0.7,1.6-0.7c0.7,0,1.2,0.2,1.6,0.6c0.4,0.4,0.6,1,0.6,1.7V12.9z"/>
	<polygon class="st0" points="91.6,12.8 87.5,12.8 87.5,7.9 84.2,7.9 84.2,20.2 87.5,20.2 87.5,15.5 91.6,15.5 91.6,20.2 94.9,20.2 
		94.9,7.9 91.6,7.9 	"/>
	<polygon class="st0" points="108.4,7.9 104.2,7.9 101.5,12.5 100.4,12.5 100.4,7.9 97.1,7.9 97.1,20.2 100.4,20.2 100.4,15.7 
		101.7,15.7 104.4,20.2 108.8,20.2 104.4,13.8 	"/>
	<path class="st0" d="M120,13.8c0-2-0.5-3.5-1.5-4.5s-2.3-1.6-4-1.6c-1.1,0-2.1,0.3-3,0.8c-0.9,0.5-1.6,1.3-2,2.3
		c-0.5,1-0.7,2.1-0.7,3.3v0.3c0,1.8,0.6,3.3,1.7,4.4c1.1,1.1,2.6,1.7,4.4,1.7c1,0,2-0.2,2.8-0.6c0.8-0.4,1.5-0.9,2-1.6l-1.6-1.8
		c-0.7,0.9-1.7,1.4-3,1.4c-0.8,0-1.5-0.2-2-0.7s-0.9-1.1-1-1.9h7.9V13.8z M116.8,12.9h-4.6c0.1-0.8,0.4-1.5,0.8-1.9
		c0.4-0.4,0.9-0.7,1.6-0.7c0.7,0,1.2,0.2,1.6,0.6c0.4,0.4,0.6,1,0.6,1.7V12.9z"/>
	<path class="st0" d="M42.2,11.6C42.2,11.6,42.2,11.6,42.2,11.6l-7.5,0c0,0,0,0,0,0H34L44.5,0h-5.7l-9.3,11.6h-0.4L28.5,0H25v28h4.9
		l-0.5-10.9l9.5-1l-4,11c-0.1,0.2,0.1,0.3,0.2,0.3h9.7c-1-1.8-2.8-3-5-3l4.7-9.1l0,0c0.2-0.4,0.3-0.7,0.3-1.2
		C44.7,12.7,43.6,11.6,42.2,11.6z"/>
</g>
</svg>
