<?xml version="1.0" encoding="utf-8"?>
<!-- Generator: Adobe Illustrator 24.1.1, SVG Export Plug-In . SVG Version: 6.00 Build 0)  -->
<svg version="1.1" id="Layer_1" xmlns="http://www.w3.org/2000/svg" xmlns:xlink="http://www.w3.org/1999/xlink" x="0px" y="0px"
	 viewBox="0 0 142 28" style="enable-background:new 0 0 142 28;" xml:space="preserve">
<style type="text/css">
	.st0{fill:#FFFFFF;}
	.st1{fill-rule:evenodd;clip-rule:evenodd;fill:#FFFFFF;}
</style>
<g>
	<path class="st0" d="M43.1,20.2h-3.3v-4.7h-4.1v4.7h-3.3V7.9h3.3v5h4.1v-5h3.3V20.2z"/>
	<path class="st0" d="M52.3,20.2c-0.2-0.3-0.3-0.7-0.3-1.1c-0.8,0.9-1.8,1.3-3.1,1.3c-1.2,0-2.2-0.3-3-1c-0.8-0.7-1.2-1.6-1.2-2.6
		c0-1.3,0.5-2.3,1.5-3c1-0.7,2.4-1.1,4.2-1.1h1.5V12c0-0.6-0.1-1-0.4-1.4c-0.3-0.3-0.8-0.5-1.4-0.5c-0.6,0-1,0.1-1.3,0.4
		c-0.3,0.3-0.5,0.6-0.5,1.1h-3.3c0-0.7,0.2-1.4,0.7-2C46,9,46.6,8.5,47.4,8.2c0.8-0.3,1.7-0.5,2.7-0.5c1.5,0,2.7,0.4,3.6,1.1
		s1.3,1.8,1.3,3.2v5.4c0,1.2,0.2,2.1,0.5,2.7v0.2H52.3z M49.5,17.9c0.5,0,0.9-0.1,1.3-0.3c0.4-0.2,0.7-0.5,0.9-0.9v-2.1h-1.2
		c-1.7,0-2.5,0.6-2.6,1.7l0,0.2c0,0.4,0.1,0.7,0.4,1S49,17.9,49.5,17.9z"/>
	<path class="st0" d="M61.9,15.7h-1.3v4.6h-3.3V7.9h3.3v4.6h1.2l2.7-4.6h4.2l-4,5.9l4.4,6.5h-4.4L61.9,15.7z"/>
	<path class="st0" d="M68.5,13.9c0-1.2,0.2-2.3,0.7-3.3c0.5-1,1.2-1.7,2-2.2c0.9-0.5,1.9-0.8,3.1-0.8c1.7,0,3,0.5,4.1,1.5
		c1.1,1,1.6,2.4,1.8,4.2l0,0.8c0,1.9-0.5,3.4-1.6,4.6c-1.1,1.1-2.5,1.7-4.3,1.7c-1.8,0-3.2-0.6-4.3-1.7c-1.1-1.1-1.6-2.7-1.6-4.7
		V13.9z M71.8,14.2c0,1.2,0.2,2.1,0.7,2.7c0.4,0.6,1.1,0.9,1.9,0.9c0.8,0,1.4-0.3,1.9-0.9c0.4-0.6,0.7-1.6,0.7-2.9
		c0-1.1-0.2-2-0.7-2.7c-0.4-0.6-1.1-0.9-1.9-0.9c-0.8,0-1.4,0.3-1.9,0.9C72,11.9,71.8,12.9,71.8,14.2z"/>
	<path class="st0" d="M92.2,7.9v12.3h-3.3v-9.7H86l-0.2,3.8c-0.1,2-0.5,3.5-1.2,4.4c-0.7,0.9-1.7,1.4-3,1.4h-1.1l0-2.7l0.4,0
		c0.6,0,1-0.4,1.3-1c0.3-0.7,0.4-1.8,0.5-3.3l0.2-5.2H92.2z"/>
	<path class="st0" d="M99.8,20.4c-1.8,0-3.3-0.6-4.4-1.7c-1.1-1.1-1.7-2.6-1.7-4.4V14c0-1.2,0.2-2.3,0.7-3.3c0.5-1,1.2-1.7,2-2.3
		c0.9-0.5,1.9-0.8,3-0.8c1.7,0,3,0.5,4,1.6s1.5,2.6,1.5,4.5v1.3H97c0.1,0.8,0.4,1.5,1,1.9s1.2,0.7,2,0.7c1.3,0,2.3-0.5,3-1.4
		l1.6,1.8c-0.5,0.7-1.2,1.2-2,1.6C101.8,20.3,100.8,20.4,99.8,20.4z M99.4,10.3c-0.7,0-1.2,0.2-1.6,0.7c-0.4,0.4-0.7,1.1-0.8,1.9
		h4.6v-0.3c0-0.7-0.2-1.3-0.6-1.7C100.7,10.5,100.1,10.3,99.4,10.3z"/>
	<path class="st0" d="M116.9,20.2h-3.3v-4.7h-4.1v4.7h-3.3V7.9h3.3v5h4.1v-5h3.3V20.2z"/>
	<path class="st0" d="M123.7,15.7h-1.3v4.6h-3.3V7.9h3.3v4.6h1.2l2.7-4.6h4.2l-4,5.9l4.4,6.5h-4.4L123.7,15.7z"/>
	<path class="st0" d="M136.9,20.4c-1.8,0-3.3-0.6-4.4-1.7c-1.1-1.1-1.7-2.6-1.7-4.4V14c0-1.2,0.2-2.3,0.7-3.3c0.5-1,1.2-1.7,2-2.3
		c0.9-0.5,1.9-0.8,3-0.8c1.7,0,3,0.5,4,1.6s1.5,2.6,1.5,4.5v1.3h-7.9c0.1,0.8,0.4,1.5,1,1.9s1.2,0.7,2,0.7c1.3,0,2.3-0.5,3-1.4
		l1.6,1.8c-0.5,0.7-1.2,1.2-2,1.6C138.9,20.3,138,20.4,136.9,20.4z M136.5,10.3c-0.7,0-1.2,0.2-1.6,0.7c-0.4,0.4-0.7,1.1-0.8,1.9
		h4.6v-0.3c0-0.7-0.2-1.3-0.6-1.7C137.8,10.5,137.2,10.3,136.5,10.3z"/>
</g>
<g>
	<path class="st1" d="M14.9,13.7L3.3,14.3c-0.7,0-2.3-0.3-3.2-0.8c0,0.3,0,0.6,0,0.9c0,6.3,4,11.6,9.7,13.5L14.9,13.7z"/>
	<path class="st1" d="M14.3,0C9.2,0,4.7,2.7,2.2,6.7l17.5,0c2.2,0,3.5,1.6,3.5,3.5c0,0.6-0.2,1.2-0.4,1.6l0,0L16.2,25
		c2,0,3.7,0.7,5.1,1.9c4.4-2.5,7.3-7.1,7.3-12.5C28.7,6.4,22.3,0,14.3,0z"/>
</g>
</svg>
