<svg width="52" height="50" viewBox="0 0 52 50" fill="none" xmlns="http://www.w3.org/2000/svg">
<path d="M51.4155 11.8519C51.2383 11.212 50.8059 10.6664 50.2144 10.3357C49.6225 10.0033 48.9187 9.91339 48.2585 10.0855C47.5991 10.258 47.0374 10.6774 46.6968 11.2519L46.2678 11.9768C45.8602 11.7494 45.3395 11.8833 45.1011 12.2771L42.9219 15.8845L42.1754 15.4679C41.9777 15.3568 41.7423 15.3267 41.5219 15.3845C41.3012 15.4426 41.1135 15.5834 41 15.7762C40.7675 16.1745 40.9091 16.6806 41.3175 16.9093L42.064 17.3259L34.7715 29.5988L32.9698 34.2733L32.1118 35.831C31.6095 36.6797 31.6632 37.7346 32.2492 38.5308L30.3189 40.8302L29.7785 39.5141C29.5347 38.9274 28.9704 38.5255 28.3215 38.4762C27.6722 38.4266 27.0501 38.7382 26.7153 39.2805L26.4066 39.7887L26.115 36.4559C26.048 35.6675 25.4192 35.0336 24.6107 34.9384C23.8018 34.8436 23.036 35.3143 22.7775 36.0645L20.667 42.2134C20.5196 42.6483 20.7609 43.117 21.2074 43.2634C21.2912 43.3013 21.3813 43.324 21.4735 43.3297C21.8421 43.331 22.1705 43.1027 22.2887 42.7634L24.3904 36.6146L24.6907 39.997C24.7527 40.7187 25.2868 41.3188 26.0132 41.4823C26.7396 41.6459 27.4912 41.335 27.8737 40.7138L28.1912 40.2053L28.7232 41.5136C28.949 42.0649 29.4597 42.4583 30.0642 42.5458C30.6687 42.6332 31.2752 42.4018 31.6573 41.9384L33.6564 39.4807C33.8776 39.5368 34.1054 39.5649 34.3342 39.5641C35.2537 39.571 36.1074 39.1007 36.5733 38.3306L37.4312 36.9392L40.7 33.0816L48.0696 20.6586L48.8161 21.0752C49.0151 21.1859 49.16 21.3686 49.2191 21.5838C49.2786 21.7974 49.2476 22.0252 49.1336 22.2168L45.7019 27.991C45.5724 28.1805 45.5284 28.4133 45.5804 28.6354C45.6323 28.8571 45.7752 29.0487 45.9763 29.1655C46.174 29.277 46.4094 29.3071 46.6298 29.2493C46.8505 29.1911 47.0382 29.0504 47.1517 28.8575L50.5835 23.0833C50.9257 22.5085 51.0183 21.825 50.8407 21.1839C50.6631 20.5435 50.2312 19.9979 49.6397 19.6672L48.8932 19.2506L51.038 15.6428C51.2722 15.247 51.1344 14.7417 50.7293 14.5098L51.1582 13.7848C51.5097 13.201 51.6027 12.5037 51.4155 11.8519ZM48.181 12.0851C48.2945 11.8922 48.4831 11.751 48.7047 11.6937C48.925 11.6408 49.1579 11.6705 49.3565 11.7771C49.5555 11.8873 49.7004 12.0704 49.7599 12.2852C49.8144 12.4992 49.7838 12.7254 49.674 12.9182L49.2451 13.6432L47.752 12.81L48.181 12.0851ZM36.4874 35.3481L36.0584 35.1064L34.7887 34.3896L36.0069 31.2236L38.7093 32.7399L36.4874 35.3481ZM33.9136 37.7557C33.5512 37.5104 33.4398 37.0385 33.6564 36.6642L34.0853 35.9396L35.5779 36.7728L35.149 37.4893C35.0287 37.6919 34.8268 37.8359 34.5918 37.8867C34.3568 37.9372 34.1109 37.89 33.9136 37.7557ZM39.6875 31.3738L36.7191 29.7074L43.5826 18.1591L46.551 19.8254L39.6875 31.3738ZM47.409 18.384L44.4405 16.7177L46.1564 13.8348L49.1248 15.5012L47.409 18.384Z" fill="#FFBB01"/>
<path d="M13.5678 37.3436L10.5311 40.285L8.7122 38.5186C8.37748 38.1955 7.83708 38.1955 7.50237 38.5186C7.33983 38.6752 7.2485 38.888 7.2485 39.1101C7.2485 39.3322 7.33983 39.5454 7.50237 39.7016L9.3213 41.4681C9.64303 41.7781 10.0779 41.9518 10.5311 41.9514C10.9869 41.9538 11.4255 41.7801 11.7493 41.4681L14.7777 38.5186C15.0692 38.1878 15.0495 37.6951 14.7328 37.3876C14.4157 37.0796 13.9084 37.0605 13.5678 37.3436Z" fill="#FFBB01"/>
<path d="M3.46152 39.585C3.46152 43.4966 6.72655 46.6671 10.754 46.6671C14.7815 46.6671 18.0465 43.4966 18.0465 39.585C18.0465 39.1248 17.6623 38.7518 17.1886 38.7518C16.7148 38.7518 16.3306 39.1248 16.3306 39.585C16.3306 42.576 13.8339 45.0007 10.754 45.0007C7.67414 45.0007 5.1774 42.576 5.1774 39.585C5.1774 36.5939 7.67414 34.1692 10.754 34.1692C11.9613 34.166 13.1364 34.5463 14.0999 35.2526C14.479 35.5288 15.0169 35.454 15.3009 35.0858C15.5854 34.7176 15.5087 34.1957 15.1296 33.9194C12.9198 32.31 9.96309 32.0512 7.49274 33.2506C5.02198 34.4503 3.46152 36.9027 3.46152 39.585Z" fill="#FFBB01"/>
<path d="M30.9155 6.67383C31.3893 6.67383 31.7734 6.30117 31.7734 5.84064C31.7734 5.38051 31.3893 5.00745 30.9155 5.00745H8.60904C8.13524 5.00745 7.7511 5.38051 7.7511 5.84064V9.1734C7.7511 9.63394 8.13524 10.0066 8.60904 10.0066H30.9155C31.3893 10.0066 31.7734 9.63394 31.7734 9.1734C31.7734 8.71328 31.3893 8.34021 30.9155 8.34021H9.46698V6.67383H30.9155Z" fill="#FFBB01"/>
<path d="M11.1829 11.673C10.7091 11.673 10.325 12.0461 10.325 12.5062C10.325 12.9668 10.7091 13.3394 11.1829 13.3394H28.3417C28.8155 13.3394 29.1997 12.9668 29.1997 12.5062C29.1997 12.0461 28.8155 11.673 28.3417 11.673H11.1829Z" fill="#FFBB01"/>
<path d="M33.4894 17.5053H14.6147C14.141 17.5053 13.7568 17.8784 13.7568 18.3385C13.7568 18.799 14.141 19.1717 14.6147 19.1717H33.4894C33.9632 19.1717 34.3474 18.799 34.3474 18.3385C34.3474 17.8784 33.9632 17.5053 33.4894 17.5053Z" fill="#FFBB01"/>
<path d="M24.91 23.3377C24.91 22.8776 24.5258 22.5045 24.052 22.5045H6.89322C6.41942 22.5045 6.03528 22.8776 6.03528 23.3377C6.03528 23.7982 6.41942 24.1709 6.89322 24.1709H24.052C24.5258 24.1709 24.91 23.7982 24.91 23.3377Z" fill="#FFBB01"/>
<path d="M33.4893 22.5045H27.4838C27.01 22.5045 26.6258 22.8776 26.6258 23.3377C26.6258 23.7982 27.01 24.1709 27.4838 24.1709H33.4893C33.9631 24.1709 34.3473 23.7982 34.3473 23.3377C34.3473 22.8776 33.9631 22.5045 33.4893 22.5045Z" fill="#FFBB01"/>
<path d="M15.4726 28.3368C15.9464 28.3368 16.3306 27.9642 16.3306 27.5037C16.3306 27.0435 15.9464 26.6705 15.4726 26.6705H6.89322C6.41942 26.6705 6.03528 27.0435 6.03528 27.5037C6.03528 27.9642 6.41942 28.3368 6.89322 28.3368H15.4726Z" fill="#FFBB01"/>
<path d="M18.9043 28.3368H24.9099C25.3837 28.3368 25.7678 27.9642 25.7678 27.5037C25.7678 27.0435 25.3837 26.6705 24.9099 26.6705H18.9043C18.4305 26.6705 18.0464 27.0435 18.0464 27.5037C18.0464 27.9642 18.4305 28.3368 18.9043 28.3368Z" fill="#FFBB01"/>
<path d="M38.637 38.3352C38.1632 38.3352 37.779 38.7082 37.779 39.1684V47.5003C37.779 47.9608 37.3949 48.3335 36.9211 48.3335H2.60351C2.12972 48.3335 1.74557 47.9608 1.74557 47.5003V2.50794C1.74557 2.04781 2.12972 1.67474 2.60351 1.67474H36.9211C37.3949 1.67474 37.779 2.04781 37.779 2.50794V18.1555C37.779 18.6156 38.1632 18.9887 38.637 18.9887C39.1108 18.9887 39.4949 18.6156 39.4949 18.1555V2.50794C39.4949 1.12756 38.3425 0.00836182 36.9211 0.00836182H2.60351C1.18213 0.00836182 0.0296936 1.12756 0.0296936 2.50794V47.5003C0.0296936 48.8811 1.18213 49.9998 2.60351 49.9998H36.9211C38.3425 49.9998 39.4949 48.8811 39.4949 47.5003V39.1684C39.4949 38.7082 39.1108 38.3352 38.637 38.3352Z" fill="#FFBB01"/>
</svg>
