<svg width="17" height="17" viewBox="0 0 17 17" fill="none" xmlns="http://www.w3.org/2000/svg">
<path d="M13.2241 10.5719C12.882 10.2158 12.4694 10.0253 12.0321 10.0253C11.5983 10.0253 11.1822 10.2122 10.826 10.5684L9.71157 11.6793C9.61987 11.6299 9.52818 11.5841 9.44002 11.5382C9.31306 11.4747 9.19316 11.4148 9.09088 11.3513C8.04701 10.6883 7.09835 9.8243 6.18849 8.70637C5.74767 8.14916 5.45143 7.68013 5.23631 7.20403C5.52549 6.93954 5.79351 6.66446 6.05448 6.39997C6.15323 6.30122 6.25197 6.19895 6.35071 6.10021C7.0913 5.35962 7.0913 4.40039 6.35071 3.6598L5.38795 2.69704C5.27863 2.58771 5.16578 2.47486 5.05998 2.36201C4.84838 2.14336 4.62621 1.91766 4.39698 1.70606C4.0549 1.36751 3.64581 1.18765 3.21557 1.18765C2.78532 1.18765 2.36918 1.36751 2.01652 1.70606C2.01299 1.70959 2.01299 1.70959 2.00947 1.71312L0.810424 2.92274C0.359019 3.37415 0.101577 3.9243 0.0451511 4.56261C-0.0394873 5.59238 0.2638 6.55161 0.496556 7.17935C1.06787 8.72047 1.9213 10.1487 3.19441 11.6793C4.73906 13.5237 6.59758 14.9802 8.72059 16.0064C9.53171 16.3908 10.6144 16.8458 11.824 16.9233C11.8981 16.9269 11.9756 16.9304 12.0462 16.9304C12.8608 16.9304 13.545 16.6377 14.081 16.0558C14.0846 16.0487 14.0916 16.0452 14.0951 16.0382C14.2785 15.816 14.4901 15.615 14.7123 15.3999C14.8639 15.2553 15.0191 15.1036 15.1707 14.9449C15.5199 14.5817 15.7033 14.1585 15.7033 13.7247C15.7033 13.2874 15.5164 12.8678 15.1602 12.5151L13.2241 10.5719ZM14.4866 14.2854C14.4831 14.2854 14.4831 14.289 14.4866 14.2854C14.349 14.4336 14.208 14.5676 14.0563 14.7157C13.8271 14.9343 13.5944 15.1636 13.3757 15.421C13.0195 15.8019 12.5999 15.9817 12.0497 15.9817C11.9968 15.9817 11.9404 15.9817 11.8875 15.9782C10.8401 15.9112 9.86674 15.5021 9.13673 15.153C7.14067 14.1867 5.38795 12.8149 3.93147 11.0762C2.72889 9.62681 1.92483 8.2867 1.39231 6.84785C1.06434 5.96972 0.944435 5.28556 0.997334 4.6402C1.0326 4.22758 1.1913 3.8855 1.484 3.59279L2.68658 2.39022C2.85938 2.228 3.04276 2.13983 3.22262 2.13983C3.4448 2.13983 3.62465 2.27385 3.7375 2.3867C3.74103 2.39022 3.74456 2.39375 3.74808 2.39728C3.96321 2.59829 4.16775 2.80636 4.38287 3.02854C4.4922 3.14139 4.60505 3.25424 4.7179 3.37062L5.68066 4.33338C6.05448 4.7072 6.05448 5.05281 5.68066 5.42663C5.57839 5.5289 5.47964 5.63117 5.37737 5.72991C5.08114 6.0332 4.79901 6.31533 4.4922 6.59041C4.48514 6.59746 4.47809 6.60099 4.47456 6.60804C4.17128 6.91133 4.2277 7.20756 4.29118 7.40858C4.29471 7.41916 4.29823 7.42974 4.30176 7.44032C4.55215 8.04689 4.90481 8.6182 5.44085 9.29884L5.44438 9.30236C6.41772 10.5014 7.44396 11.436 8.576 12.1519C8.72059 12.2435 8.86871 12.3176 9.00977 12.3881C9.13673 12.4516 9.25663 12.5116 9.35891 12.575C9.37301 12.5821 9.38712 12.5927 9.40123 12.5997C9.52113 12.6597 9.63398 12.6879 9.75036 12.6879C10.0431 12.6879 10.2264 12.5045 10.2864 12.4446L11.4925 11.2385C11.6124 11.1186 11.8028 10.974 12.025 10.974C12.2437 10.974 12.4235 11.1115 12.5328 11.2314C12.5364 11.2349 12.5364 11.2349 12.5399 11.2385L14.4831 13.1816C14.8463 13.5413 14.8463 13.9116 14.4866 14.2854Z" fill="#949494"/>
<path d="M9.04856 4.19573C9.97253 4.3509 10.8119 4.7882 11.4819 5.45825C12.152 6.12831 12.5858 6.96764 12.7445 7.89161C12.7832 8.12437 12.9843 8.28659 13.2135 8.28659C13.2417 8.28659 13.2664 8.28306 13.2946 8.27954C13.5556 8.23722 13.7284 7.99035 13.6861 7.72939C13.4956 6.61145 12.9666 5.59227 12.159 4.78467C11.3514 3.97708 10.3322 3.44809 9.21431 3.25766C8.95334 3.21534 8.71001 3.38814 8.66416 3.64558C8.61832 3.90302 8.78759 4.15341 9.04856 4.19573Z" fill="#949494"/>
<path d="M16.7083 7.5919C16.3945 5.75102 15.5269 4.07588 14.1939 2.74282C12.8608 1.40977 11.1857 0.542226 9.3448 0.228358C9.08736 0.182512 8.84403 0.358842 8.79818 0.616284C8.75586 0.877253 8.92866 1.12059 9.18963 1.16643C10.833 1.44504 12.3318 2.22441 13.5238 3.41288C14.7158 4.60487 15.4917 6.10368 15.7703 7.74707C15.8091 7.97983 16.0101 8.14205 16.2393 8.14205C16.2675 8.14205 16.2922 8.13853 16.3204 8.135C16.5779 8.09621 16.7542 7.84934 16.7083 7.5919Z" fill="#949494"/>
</svg>
