<svg width="52" height="50" viewBox="0 0 52 50" fill="none" xmlns="http://www.w3.org/2000/svg">
<path d="M49.7929 35.6352V33.3352H50.6509C50.8876 33.3369 51.1142 33.2433 51.2772 33.0769C51.423 32.9186 51.5055 32.7144 51.5088 32.502L49.973 4.17195C49.8268 1.87892 47.8687 0.0916138 45.5029 0.0916138C43.1372 0.0916138 41.1791 1.87892 41.0329 4.17195L39.497 32.502C39.4899 32.729 39.5729 32.9495 39.7287 33.1188C39.8988 33.2697 40.1246 33.3478 40.355 33.3352H41.213V35.6352L39.5913 38.7932C39.469 39.0287 39.469 39.307 39.5913 39.543L44.7392 49.5418C44.7811 49.6338 44.8427 49.716 44.9194 49.7835C45.0195 49.8734 45.1401 49.9393 45.2713 49.9751H45.743C45.8745 49.9393 45.9952 49.8734 46.0949 49.7835C46.172 49.716 46.2331 49.6338 46.275 49.5418L51.423 39.543C51.5453 39.307 51.5453 39.0287 51.423 38.7932L49.7929 35.6352ZM41.2557 31.6688L41.6164 25.0029H49.3894L49.7929 31.6688H41.2557ZM42.7488 4.21386C42.7488 2.73657 43.9818 1.53879 45.5029 1.53879C47.0241 1.53879 48.257 2.73657 48.257 4.21386L49.2952 23.3783H41.7107L41.805 21.7118H46.5838C47.058 21.7118 47.4418 21.3387 47.4418 20.8786C47.4418 20.418 47.058 20.0454 46.5838 20.0454H41.8908L42.7488 4.21386ZM48.0769 33.3352V35.0017H42.929V33.3352H48.0769ZM46.3609 45.634V40.0011H47.2189C47.6927 40.0011 48.0769 39.628 48.0769 39.1679C48.0769 38.7077 47.6927 38.3347 47.2189 38.3347H43.787C43.3131 38.3347 42.929 38.7077 42.929 39.1679C42.929 39.628 43.3131 40.0011 43.787 40.0011H44.645V45.634L41.3161 39.1679L42.603 36.6682H48.4028L49.6898 39.1679L46.3609 45.634Z" fill="#FFBB01"/>
<path d="M29.2013 10.8379C29.6751 10.8379 30.0592 10.4648 30.0592 10.0046C30.0592 9.54447 29.6751 9.17139 29.2013 9.17139H6.89363C6.41981 9.17139 6.03564 9.54447 6.03564 10.0046V13.3376C6.03564 13.7977 6.41981 14.1708 6.89363 14.1708H29.2013C29.6751 14.1708 30.0592 13.7977 30.0592 13.3376C30.0592 12.8774 29.6751 12.5043 29.2013 12.5043H7.75162V10.8379H29.2013Z" fill="#FFBB01"/>
<path d="M30.0593 18.337C30.0593 17.8768 29.6751 17.5037 29.2013 17.5037H10.3256C9.85176 17.5037 9.46759 17.8768 9.46759 18.337C9.46759 18.7971 9.85176 19.1702 10.3256 19.1702H29.2013C29.6751 19.1702 30.0593 18.7971 30.0593 18.337Z" fill="#FFBB01"/>
<path d="M5.17764 22.5031C5.17764 22.9633 5.56181 23.3363 6.03563 23.3363H19.7634C20.2372 23.3363 20.6214 22.9633 20.6214 22.5031C20.6214 22.0429 20.2372 21.6699 19.7634 21.6699H6.03563C5.56181 21.6699 5.17764 22.0429 5.17764 22.5031Z" fill="#FFBB01"/>
<path d="M24.9114 21.6699C24.4375 21.6699 24.0534 22.0429 24.0534 22.5031C24.0534 22.9633 24.4375 23.3363 24.9114 23.3363H28.3433C28.8171 23.3363 29.2013 22.9633 29.2013 22.5031C29.2013 22.0429 28.8171 21.6699 28.3433 21.6699H24.9114Z" fill="#FFBB01"/>
<path d="M17.1894 26.6693C17.1894 26.2091 16.8053 25.8361 16.3315 25.8361H6.03563C5.56181 25.8361 5.17764 26.2091 5.17764 26.6693C5.17764 27.1294 5.56181 27.5025 6.03563 27.5025H16.3315C16.8053 27.5025 17.1894 27.1294 17.1894 26.6693Z" fill="#FFBB01"/>
<path d="M16.3315 30.8356C16.3315 30.3754 15.9473 30.0023 15.4735 30.0023H6.03563C5.56181 30.0023 5.17764 30.3754 5.17764 30.8356C5.17764 31.2957 5.56181 31.6688 6.03563 31.6688H15.4735C15.9473 31.6688 16.3315 31.2957 16.3315 30.8356Z" fill="#FFBB01"/>
<path d="M6.03563 34.1685C5.56181 34.1685 5.17764 34.5415 5.17764 35.0017C5.17764 35.4618 5.56181 35.8349 6.03563 35.8349H12.0415C12.5154 35.8349 12.8995 35.4618 12.8995 35.0017C12.8995 34.5415 12.5154 34.1685 12.0415 34.1685H6.03563Z" fill="#FFBB01"/>
<path d="M33.4911 0.0057373H2.60365C1.18219 0.0057373 0.0296936 1.12499 0.0296936 2.50545V40.8343C0.0296936 42.2148 1.18219 43.334 2.60365 43.334H17.1894C17.6632 43.334 18.0474 42.961 18.0474 42.5008C18.0474 42.0406 17.6632 41.6676 17.1894 41.6676H2.60365C2.12983 41.6676 1.74567 41.2945 1.74567 40.8343V7.50487H34.3491V40.8343C34.3491 41.2945 33.965 41.6676 33.4911 41.6676H30.9172C30.4434 41.6676 30.0592 42.0406 30.0592 42.5008C30.0592 42.961 30.4434 43.334 30.9172 43.334H33.4911C34.9126 43.334 36.0651 42.2148 36.0651 40.8343V2.50545C36.0651 1.12499 34.9126 0.0057373 33.4911 0.0057373ZM1.74567 5.83839V2.50545C1.74567 2.0453 2.12983 1.67221 2.60365 1.67221H33.4911C33.965 1.67221 34.3491 2.0453 34.3491 2.50545V5.83839H1.74567Z" fill="#FFBB01"/>
<path d="M24.0533 30.8354C22.6318 30.8354 21.4793 31.9547 21.4793 33.3352C21.4793 34.7156 22.6318 35.8349 24.0533 35.8349C25.4747 35.8349 26.6272 34.7156 26.6272 33.3352C26.6272 31.9547 25.4747 30.8354 24.0533 30.8354ZM24.0533 34.1684C23.5794 34.1684 23.1953 33.7953 23.1953 33.3352C23.1953 32.875 23.5794 32.5019 24.0533 32.5019C24.5271 32.5019 24.9112 32.875 24.9112 33.3352C24.9112 33.7953 24.5271 34.1684 24.0533 34.1684Z" fill="#FFBB01"/>
<path d="M30.9172 33.3352C30.9159 32.4092 30.388 31.5592 29.5443 31.1272C29.825 30.2419 29.5786 29.2788 28.9046 28.6238C28.2301 27.9692 27.2385 27.7299 26.3268 28.0025C25.8803 27.1856 25.0059 26.6746 24.0533 26.6746C23.1006 26.6746 22.2263 27.1856 21.7797 28.0025C20.8681 27.7299 19.8765 27.9692 19.202 28.6238C18.5279 29.2788 18.2816 30.2419 18.5622 31.1272C17.7206 31.5609 17.1948 32.41 17.1948 33.3352C17.1948 34.2604 17.7206 35.1099 18.5622 35.5432C18.2816 36.4264 18.5258 37.3878 19.1969 38.0429C19.3645 38.2052 19.5551 38.3427 19.7633 38.4514V49.1667C19.765 49.5031 19.9749 49.8054 20.2954 49.9332C20.6146 50.0638 20.9837 49.9946 21.2305 49.7582L24.0533 47.0087L26.8761 49.7582C27.0378 49.9145 27.2573 50.0011 27.4852 49.9999C27.5979 50.0028 27.7093 49.98 27.8111 49.9332C28.1316 49.8054 28.3415 49.5031 28.3432 49.1667V38.4595C28.5514 38.3509 28.742 38.2133 28.9096 38.0514C29.5807 37.396 29.825 36.435 29.5443 35.5517C30.3906 35.118 30.9193 34.2644 30.9172 33.3352ZM24.6624 45.2422C24.5015 45.0843 24.282 44.9956 24.0533 44.9956C23.8245 44.9956 23.605 45.0843 23.4441 45.2422L21.4793 47.1584V38.7431L21.7797 38.6678C22.2263 39.4852 23.1006 39.9958 24.0533 39.9958C25.0059 39.9958 25.8803 39.4852 26.3268 38.6678L26.6272 38.7431V47.1584L24.6624 45.2422ZM28.3432 34.1684H28.1974C27.848 34.1668 27.5321 34.371 27.3993 34.6851C27.2674 34.9972 27.3419 35.3556 27.5883 35.5932L27.6913 35.6933C28.024 36.0184 28.024 36.5432 27.6913 36.8683C27.5967 36.9647 27.4785 37.0363 27.3478 37.0766H27.2192C26.949 37.1173 26.675 37.0306 26.4814 36.8431L26.3784 36.743C26.1329 36.5029 25.7621 36.4305 25.4404 36.5603C25.1182 36.6901 24.9092 36.9964 24.9113 37.3349V37.5014C24.9113 37.9615 24.5271 38.3346 24.0533 38.3346C23.5794 38.3346 23.1953 37.9615 23.1953 37.5014V37.3598C23.197 37.0205 22.9867 36.7137 22.6632 36.5847C22.5598 36.5448 22.4487 36.5253 22.3373 36.5265C22.1094 36.5253 21.8899 36.6124 21.7282 36.7682L21.6251 36.8683C21.4316 37.0558 21.1576 37.1425 20.8873 37.1014H20.7587C20.628 37.0615 20.5099 36.9899 20.4152 36.8931C20.0826 36.568 20.0826 36.0432 20.4152 35.7181L20.5271 35.6184C20.7734 35.3804 20.848 35.022 20.7156 34.7099C20.5828 34.3962 20.2673 34.1916 19.9179 34.1936H19.7633C19.2895 34.1936 18.9054 33.8205 18.9054 33.3604C18.9054 32.8998 19.2895 32.5272 19.7633 32.5272H19.9091C20.2585 32.5288 20.5744 32.3241 20.7072 32.0105C20.8392 31.6984 20.7646 31.34 20.5183 31.1019L20.4152 31.0023C20.0788 30.6776 20.0771 30.1499 20.411 29.8232C20.7453 29.4965 21.2887 29.4945 21.6251 29.8191L21.7282 29.9274C21.9728 30.1666 22.3423 30.239 22.6632 30.1104C22.9867 29.9815 23.197 29.6751 23.1953 29.3358V29.169C23.1953 28.7088 23.5794 28.3357 24.0533 28.3357C24.5271 28.3357 24.9113 28.7088 24.9113 29.169V29.3106C24.9096 29.6503 25.1199 29.9567 25.4433 30.0856C25.7642 30.2138 26.1337 30.1418 26.3784 29.9021L26.4814 29.8025C26.8153 29.4758 27.3591 29.4737 27.6955 29.798C28.0319 30.1226 28.0336 30.6503 27.6997 30.977L27.5883 31.0771C27.3419 31.3147 27.2674 31.6736 27.3993 31.9852C27.5321 32.2993 27.848 32.5036 28.1974 32.5019H28.3432C28.817 32.5019 29.2012 32.875 29.2012 33.3352C29.2012 33.7953 28.817 34.1684 28.3432 34.1684Z" fill="#FFBB01"/>
</svg>
