<svg width="53" height="50" viewBox="0 0 53 50" fill="none" xmlns="http://www.w3.org/2000/svg">
<path d="M51.1617 24.1667H31.5372C31.0633 24.1667 30.6791 24.5398 30.6791 25C30.6791 25.4602 31.0633 25.8334 31.5372 25.8334H50.3036V34.1667H46.0132V28.3334C46.0132 27.8731 45.629 27.5 45.1551 27.5C44.6812 27.5 44.297 27.8731 44.297 28.3334V34.1667H21.1287V25.8334H26.2772C26.7511 25.8334 27.1353 25.4602 27.1353 25C27.1353 24.5398 26.7511 24.1667 26.2772 24.1667H20.2706C19.7968 24.1667 19.4125 24.5398 19.4125 25V35C19.4125 35.4602 19.7968 35.8334 20.2706 35.8334H27.9934V37.5H20.2706C19.7968 37.5 19.4125 37.8731 19.4125 38.3334V44.1667H16.8383V43.3334C16.8383 42.8731 16.4541 42.5 15.9802 42.5H13.4059V38.3334C13.4059 37.8731 13.0217 37.5 12.5479 37.5C12.074 37.5 11.6898 37.8731 11.6898 38.3334V43.3334C11.6898 43.7936 12.074 44.1667 12.5479 44.1667H15.1221V45.8334H6.54125V44.1667H9.11551C9.58939 44.1667 9.9736 43.7936 9.9736 43.3334V38.3334C9.9736 37.8731 9.58939 37.5 9.11551 37.5C8.64164 37.5 8.25742 37.8731 8.25742 38.3334V42.5H5.68317C5.20929 42.5 4.82508 42.8731 4.82508 43.3334V44.1667H1.39274C0.918864 44.1667 0.534653 44.5398 0.534653 45C0.534653 45.4602 0.918864 45.8334 1.39274 45.8334H4.82508V46.6667C4.82508 47.1269 5.20929 47.5 5.68317 47.5H15.9802C16.4541 47.5 16.8383 47.1269 16.8383 46.6667V45.8334H19.4125V48.3334C19.4125 48.7936 19.7968 49.1667 20.2706 49.1667H51.1617C51.6356 49.1667 52.0198 48.7936 52.0198 48.3334V38.3334C52.0198 37.8731 51.6356 37.5 51.1617 37.5H43.4389V35.8334H51.1617C51.6356 35.8334 52.0198 35.4602 52.0198 35V25C52.0198 24.5398 51.6356 24.1667 51.1617 24.1667ZM50.3036 47.5H21.1287V39.1667H44.297V45C44.297 45.4602 44.6812 45.8334 45.1551 45.8334C45.629 45.8334 46.0132 45.4602 46.0132 45V39.1667H50.3036V47.5ZM41.7228 37.5H29.7096V35.8334H41.7228V37.5Z" fill="#FFBB01"/>
<path d="M26.2771 27.5C24.8555 27.5 23.7028 28.6194 23.7028 30C23.7028 31.381 24.8555 32.5 26.2771 32.5C27.6987 32.5 28.8514 31.381 28.8514 30C28.8514 28.6194 27.6987 27.5 26.2771 27.5ZM26.2771 30.8333C25.8032 30.8333 25.419 30.4602 25.419 30C25.419 29.5398 25.8032 29.1667 26.2771 29.1667C26.751 29.1667 27.1352 29.5398 27.1352 30C27.1352 30.4602 26.751 30.8333 26.2771 30.8333Z" fill="#FFBB01"/>
<path d="M31.4258 32.5C31.8997 32.5 32.2839 32.1269 32.2839 31.6667V28.3333C32.2839 27.8731 31.8997 27.5 31.4258 27.5C30.952 27.5 30.5677 27.8731 30.5677 28.3333V31.6667C30.5677 32.1269 30.952 32.5 31.4258 32.5Z" fill="#FFBB01"/>
<path d="M35.7162 31.6667V28.3333C35.7162 27.8731 35.332 27.5 34.8581 27.5C34.3842 27.5 34 27.8731 34 28.3333V31.6667C34 32.1269 34.3842 32.5 34.8581 32.5C35.332 32.5 35.7162 32.1269 35.7162 31.6667Z" fill="#FFBB01"/>
<path d="M39.1484 31.6667V28.3333C39.1484 27.8731 38.7642 27.5 38.2903 27.5C37.8165 27.5 37.4323 27.8731 37.4323 28.3333V31.6667C37.4323 32.1269 37.8165 32.5 38.2903 32.5C38.7642 32.5 39.1484 32.1269 39.1484 31.6667Z" fill="#FFBB01"/>
<path d="M42.5807 31.6667V28.3333C42.5807 27.8731 42.1965 27.5 41.7226 27.5C41.2487 27.5 40.8645 27.8731 40.8645 28.3333V31.6667C40.8645 32.1269 41.2487 32.5 41.7226 32.5C42.1965 32.5 42.5807 32.1269 42.5807 31.6667Z" fill="#FFBB01"/>
<path d="M27.9933 42.5C27.5194 42.5 27.1352 42.8732 27.1352 43.3334C27.1352 43.7936 26.751 44.1667 26.2771 44.1667C25.8032 44.1667 25.419 43.7936 25.419 43.3334C25.419 42.8732 25.8032 42.5 26.2771 42.5C26.751 42.5 27.1352 42.1269 27.1352 41.6667C27.1352 41.2065 26.751 40.8334 26.2771 40.8334C24.8555 40.8334 23.7028 41.9528 23.7028 43.3334C23.7028 44.7144 24.8555 45.8334 26.2771 45.8334C27.6987 45.8334 28.8514 44.7144 28.8514 43.3334C28.8514 42.8732 28.4671 42.5 27.9933 42.5Z" fill="#FFBB01"/>
<path d="M31.4258 40.8334C30.952 40.8334 30.5677 41.2065 30.5677 41.6667V45C30.5677 45.4602 30.952 45.8334 31.4258 45.8334C31.8997 45.8334 32.2839 45.4602 32.2839 45V41.6667C32.2839 41.2065 31.8997 40.8334 31.4258 40.8334Z" fill="#FFBB01"/>
<path d="M34.8581 40.8334C34.3842 40.8334 34 41.2065 34 41.6667V45C34 45.4602 34.3842 45.8334 34.8581 45.8334C35.332 45.8334 35.7162 45.4602 35.7162 45V41.6667C35.7162 41.2065 35.332 40.8334 34.8581 40.8334Z" fill="#FFBB01"/>
<path d="M38.2903 40.8334C37.8165 40.8334 37.4323 41.2065 37.4323 41.6667V45C37.4323 45.4602 37.8165 45.8334 38.2903 45.8334C38.7642 45.8334 39.1484 45.4602 39.1484 45V41.6667C39.1484 41.2065 38.7642 40.8334 38.2903 40.8334Z" fill="#FFBB01"/>
<path d="M41.7226 40.8334C41.2487 40.8334 40.8645 41.2065 40.8645 41.6667V45C40.8645 45.4602 41.2487 45.8334 41.7226 45.8334C42.1965 45.8334 42.5807 45.4602 42.5807 45V41.6667C42.5807 41.2065 42.1965 40.8334 41.7226 40.8334Z" fill="#FFBB01"/>
<path d="M7.03873 29.8418C7.15228 29.8906 7.27504 29.9158 7.39906 29.9167C7.79668 29.911 8.13773 29.6404 8.22363 29.2636C8.3091 28.8864 8.1172 28.5019 7.75939 28.3334C3.7258 26.5382 1.52402 22.2572 2.46967 18.047C3.41491 13.8368 7.25241 10.8346 11.6895 10.8334C12.5601 10.833 13.4266 10.9506 14.2637 11.1833C14.6911 11.3034 15.1415 11.0861 15.302 10.6837C17.4615 5.24422 22.8484 1.65942 28.8512 1.66675C35.6882 1.6993 41.596 6.31356 43.0955 12.7918C43.1722 13.1259 43.4512 13.3802 43.799 13.4335C47.5439 14.0146 50.3004 17.1506 50.3033 20.8334C50.2996 21.0759 50.2824 21.318 50.2518 21.5585C50.2204 21.7823 50.2841 22.0094 50.4278 22.1868C50.5719 22.3642 50.7839 22.4773 51.0156 22.5001C51.2448 22.5233 51.474 22.4561 51.6512 22.3133C51.8289 22.1709 51.9399 21.965 51.9596 21.742C51.9973 21.4405 52.0174 21.1374 52.0195 20.8334C52.0371 16.5365 48.9622 12.811 44.6399 11.8918C42.7557 4.91382 36.2794 0.0358877 28.8512 8.03839e-05C22.4055 -0.0198577 16.5602 3.67073 13.9633 9.40031C13.2163 9.24446 12.4537 9.16593 11.6895 9.16675C6.45047 9.17204 1.92122 12.7174 0.802943 17.6881C-0.314914 22.6588 2.27904 27.7153 7.03873 29.8418Z" fill="#FFBB01"/>
<path d="M14.264 30.5087C14.3348 30.5205 14.4077 30.5205 14.4785 30.5087C15.4569 30.267 16.3954 29.8938 17.2673 29.4003C17.4647 29.2888 17.608 29.1057 17.6658 28.8916C17.7236 28.6772 17.6913 28.4497 17.5761 28.2585C17.3377 27.8646 16.8173 27.7307 16.4092 27.9586C15.6701 28.3745 14.8762 28.6914 14.0495 28.9002C13.5756 28.9575 13.2396 29.3775 13.2987 29.8377C13.3577 30.2979 13.7901 30.6242 14.264 30.5668V30.5087Z" fill="#FFBB01"/>
<path d="M10.8318 35.8334C11.3057 35.8334 11.6899 35.4602 11.6899 35V21.9169L13.5519 24.6253C13.7098 24.858 13.9771 24.9988 14.2641 25C14.433 25.0021 14.5981 24.9524 14.7359 24.8584C15.1277 24.6041 15.2349 24.091 14.9764 23.7085L11.5441 18.7085C11.5441 18.7085 11.5441 18.7085 11.5009 18.6666C11.3384 18.4697 11.092 18.3549 10.8318 18.3549C10.5716 18.3549 10.3253 18.4697 10.1627 18.6666C10.1627 18.6666 10.1627 18.6666 10.1195 18.7085L6.68719 23.7085C6.47769 24.0877 6.60004 24.5593 6.96959 24.797C7.33871 25.0346 7.83354 24.9601 8.11174 24.6253L9.97372 21.9169V35C9.97372 35.4602 10.3579 35.8334 10.8318 35.8334Z" fill="#FFBB01"/>
<path d="M32.7555 15.1417C32.3621 14.8906 31.8334 14.9948 31.5715 15.3752L29.7095 18.0836V8.33339C29.7095 7.87319 29.3253 7.50006 28.8514 7.50006C28.3776 7.50006 27.9933 7.87319 27.9933 8.33339V18.0836L26.1314 15.3752C25.9772 15.0965 25.6743 14.9264 25.3487 14.9362C25.0232 14.9459 24.7315 15.1335 24.5954 15.4208C24.4596 15.7081 24.5028 16.0454 24.7068 16.292L28.1392 21.292C28.2988 21.5223 28.5657 21.6602 28.8514 21.6602C29.1372 21.6602 29.4041 21.5223 29.5637 21.292L32.996 16.292C33.2546 15.9095 33.1473 15.396 32.7555 15.1417Z" fill="#FFBB01"/>
</svg>
