<svg width="17" height="21" viewBox="0 0 17 21" fill="none" xmlns="http://www.w3.org/2000/svg">
<path d="M8.31406 11.462C8.3344 11.462 8.35474 11.462 8.37915 11.462C8.38729 11.462 8.39542 11.462 8.40356 11.462C8.41576 11.462 8.43203 11.462 8.44424 11.462C9.63614 11.4416 10.6002 11.0226 11.3121 10.2212C12.8783 8.45576 12.6179 5.42922 12.5895 5.14039C12.4878 2.97218 11.4626 1.93486 10.6165 1.45078C9.98599 1.08873 9.24969 0.893469 8.42797 0.877197H8.39949C8.39542 0.877197 8.38729 0.877197 8.38322 0.877197H8.35881C7.90727 0.877197 7.02046 0.95042 6.17026 1.4345C5.316 1.91859 4.27461 2.95591 4.17291 5.14039C4.14443 5.42922 3.88409 8.45576 5.45024 10.2212C6.15806 11.0226 7.12216 11.4416 8.31406 11.462ZM5.25905 5.24209C5.25905 5.22989 5.26312 5.21768 5.26312 5.20955C5.39736 2.29284 7.46793 1.97961 8.35474 1.97961H8.37102C8.37915 1.97961 8.39136 1.97961 8.40356 1.97961C9.5019 2.00401 11.3691 2.45149 11.4952 5.20955C11.4952 5.22175 11.4952 5.23395 11.4993 5.24209C11.5033 5.27057 11.7881 8.03676 10.4945 9.49308C9.98192 10.0707 9.29851 10.3555 8.39949 10.3636C8.39136 10.3636 8.38729 10.3636 8.37915 10.3636C8.37102 10.3636 8.36695 10.3636 8.35881 10.3636C7.46387 10.3555 6.77639 10.0707 6.26789 9.49308C4.97836 8.0449 5.25498 5.2665 5.25905 5.24209Z" fill="#949494"/>
<path d="M16.7387 16.4817C16.7387 16.4777 16.7387 16.4736 16.7387 16.4695C16.7387 16.437 16.7347 16.4045 16.7347 16.3678C16.7103 15.5624 16.6574 13.6789 14.8919 13.0769C14.8797 13.0728 14.8634 13.0688 14.8512 13.0647C13.0166 12.5969 11.4911 11.5392 11.4748 11.527C11.2267 11.3521 10.885 11.4131 10.7101 11.6612C10.5352 11.9094 10.5962 12.2511 10.8443 12.426C10.9135 12.4748 12.5325 13.6017 14.5583 14.1223C15.5062 14.46 15.6119 15.4729 15.6404 16.4004C15.6404 16.437 15.6404 16.4695 15.6445 16.5021C15.6485 16.8682 15.6241 17.4336 15.559 17.7591C14.9 18.1333 12.3169 19.4269 8.38728 19.4269C4.47393 19.4269 1.87452 18.1293 1.21145 17.755C1.14636 17.4296 1.11789 16.8641 1.12602 16.498C1.12602 16.4655 1.13009 16.4329 1.13009 16.3963C1.15856 15.4688 1.26433 14.4559 2.21216 14.1183C4.23799 13.5976 5.85703 12.4667 5.92618 12.422C6.17433 12.247 6.23535 11.9053 6.06042 11.6572C5.8855 11.409 5.5438 11.348 5.29565 11.5229C5.27938 11.5351 3.76204 12.5928 1.91927 13.0606C1.903 13.0647 1.89079 13.0688 1.87859 13.0728C0.113106 13.6789 0.0602224 15.5624 0.0358148 16.3638C0.0358148 16.4004 0.0358147 16.4329 0.0317468 16.4655C0.0317468 16.4695 0.0317468 16.4736 0.0317468 16.4777C0.0276789 16.6892 0.023611 17.7754 0.239211 18.3205C0.279891 18.4262 0.353114 18.5157 0.450744 18.5767C0.572782 18.6581 3.49763 20.5212 8.39135 20.5212C13.2851 20.5212 16.2099 18.654 16.332 18.5767C16.4255 18.5157 16.5028 18.4262 16.5435 18.3205C16.7469 17.7794 16.7428 16.6933 16.7387 16.4817Z" fill="#949494"/>
</svg>
